<?xml version="1.0" encoding="utf-8"?>
<!-- Generator: Adobe Illustrator 23.1.0, SVG Export Plug-In . SVG Version: 6.00 Build 0)  -->
<svg version="1.1" xmlns="http://www.w3.org/2000/svg" xmlns:xlink="http://www.w3.org/1999/xlink" x="0px" y="0px"
	 viewBox="0 0 45.7 54.7" style="enable-background:new 0 0 45.7 54.7;" xml:space="preserve">
<style type="text/css">
	.st0{fill:#006837;stroke:#077039;stroke-width:2;stroke-linecap:round;stroke-linejoin:round;stroke-miterlimit:10;}
	.st1{fill:none;stroke:#077039;stroke-width:2;stroke-linecap:round;stroke-linejoin:round;stroke-miterlimit:10;}
	.st2{fill:#006837;stroke:#006837;stroke-width:2;stroke-linecap:round;stroke-linejoin:round;stroke-miterlimit:10;}
	.st3{fill:none;stroke:#006837;stroke-width:2;stroke-linecap:round;stroke-linejoin:round;stroke-miterlimit:10;}
	.st4{fill:none;stroke:#006837;stroke-width:0.25;stroke-miterlimit:10;}
	.st5{fill:none;stroke:#F22F2F;stroke-width:0.25;stroke-linecap:round;stroke-linejoin:round;stroke-miterlimit:10;}
	.st6{fill:#EFDC30;}
	.st7{fill:none;stroke:#EFDC30;stroke-width:2;stroke-linecap:round;stroke-linejoin:round;stroke-miterlimit:10;}
	.st8{fill:none;stroke:#2664A8;stroke-linecap:round;stroke-linejoin:round;stroke-miterlimit:10;}
	.st9{fill:none;stroke:#10487A;stroke-linecap:round;stroke-linejoin:round;stroke-miterlimit:10;}
	.st10{clip-path:url(#SVGID_2_);}
	.st11{fill:#457C54;stroke:#457C54;stroke-linecap:round;stroke-linejoin:round;stroke-miterlimit:10;}
	.st12{fill:#457C54;stroke:#457C54;stroke-width:0.25;stroke-linecap:round;stroke-linejoin:round;stroke-miterlimit:10;}
	.st13{fill:none;stroke:#EFDC30;stroke-linecap:round;stroke-linejoin:round;stroke-miterlimit:10;}
	.st14{fill:none;stroke:#609FD8;stroke-linecap:round;stroke-linejoin:round;stroke-miterlimit:10;}
	.st15{clip-path:url(#SVGID_2_);fill:#609FD8;}
	.st16{clip-path:url(#SVGID_2_);fill:#0E5BA0;}
	.st17{fill:none;stroke:#0E5BA0;stroke-linecap:round;stroke-linejoin:round;stroke-miterlimit:10;}
	.st18{fill:none;stroke:#182B87;stroke-width:2;stroke-linecap:round;stroke-linejoin:round;stroke-miterlimit:10;}
	.st19{clip-path:url(#SVGID_4_);}
	.st20{fill:#5D8C50;stroke:#5D8C50;stroke-linecap:round;stroke-linejoin:round;stroke-miterlimit:10;}
	.st21{fill:#5D8C50;stroke:#5D8C50;stroke-width:0.25;stroke-linecap:round;stroke-linejoin:round;stroke-miterlimit:10;}
	.st22{fill:#FFF18F;}
	.st23{fill:none;stroke:#FFF18F;stroke-linecap:round;stroke-linejoin:round;stroke-miterlimit:10;}
	.st24{fill:none;stroke:#51AFBF;stroke-linecap:round;stroke-linejoin:round;stroke-miterlimit:10;}
	.st25{clip-path:url(#SVGID_4_);fill:#51AFBF;}
	.st26{clip-path:url(#SVGID_4_);fill:#1A7F89;}
	.st27{display:none;clip-path:url(#SVGID_4_);}
	.st28{display:inline;fill:none;stroke:#2664A8;stroke-linecap:round;stroke-linejoin:round;stroke-miterlimit:10;}
	.st29{fill:none;stroke:#1A7F89;stroke-linecap:round;stroke-linejoin:round;stroke-miterlimit:10;}
	.st30{clip-path:url(#SVGID_6_);}
	.st31{clip-path:url(#SVGID_6_);fill:#51AFBF;}
	.st32{clip-path:url(#SVGID_6_);fill:#1A7F89;}
	.st33{display:none;clip-path:url(#SVGID_6_);}
	.st34{fill:#FFF18F;stroke:#FFF18F;stroke-linecap:round;stroke-linejoin:round;stroke-miterlimit:10;}
	.st35{fill:#51AFBF;stroke:#51AFBF;stroke-linecap:round;stroke-linejoin:round;stroke-miterlimit:10;}
	.st36{fill:#5D8C50;}
	.st37{fill:none;stroke:#1A7F89;stroke-width:0.5;stroke-linejoin:round;stroke-miterlimit:10;}
	.st38{fill:none;stroke:#1A7F89;stroke-width:0.5;stroke-miterlimit:10;}
	.st39{fill:#51AFBF;stroke:#1A7F89;stroke-width:0.5;stroke-miterlimit:10;}
	.st40{fill:#1A7F89;stroke:#1A7F89;stroke-width:0.5;stroke-linecap:round;stroke-linejoin:round;stroke-miterlimit:10;}
	.st41{fill:#51AFBF;}
	.st42{fill:#FFF18F;stroke:#FFF18F;stroke-miterlimit:10;}
	.st43{fill:none;stroke:#5D8C50;stroke-linecap:round;stroke-linejoin:round;stroke-miterlimit:10;}
	.st44{fill:#1A7F89;}
	.st45{fill:#1A7F89;stroke:#1A7F89;stroke-linecap:round;stroke-linejoin:round;stroke-miterlimit:10;}
	.st46{clip-path:url(#SVGID_8_);}
	.st47{clip-path:url(#SVGID_10_);}
	.st48{clip-path:url(#SVGID_12_);}
	.st49{clip-path:url(#SVGID_14_);}
	.st50{clip-path:url(#SVGID_16_);}
	.st51{clip-path:url(#SVGID_18_);}
	.st52{clip-path:url(#SVGID_20_);}
	.st53{clip-path:url(#SVGID_22_);}
	.st54{clip-path:url(#SVGID_24_);}
	.st55{clip-path:url(#SVGID_26_);}
	.st56{clip-path:url(#SVGID_28_);}
	.st57{clip-path:url(#SVGID_30_);}
	.st58{clip-path:url(#SVGID_32_);}
	.st59{clip-path:url(#SVGID_34_);}
	.st60{clip-path:url(#SVGID_36_);}
	.st61{fill:#009245;}
	.st62{fill:#29ABE2;}
	.st63{fill:#006837;}
	.st64{fill:#FFFA00;}
	.st65{fill:#0071BC;}
</style>
<g id="LINE_LOGOS">
	<g id="Layer_12">
	</g>
	<g>
		<path class="st44" d="M22.4,47C10.7,47,1.1,37.5,1.1,25.7c0-11.8,9.6-21.3,21.3-21.3s21.3,9.6,21.3,21.3
			C43.8,37.5,34.2,47,22.4,47z M22.4,5.4c-11.2,0-20.3,9.1-20.3,20.3S11.2,46,22.4,46s20.3-9.1,20.3-20.3S33.6,5.4,22.4,5.4z"/>
	</g>
	<g>
		<circle class="st22" cx="35.7" cy="25.3" r="2.3"/>
		<g>
			<path class="st22" d="M32.6,32.4c0-2.7,1.4-4.8,3.2-4.8c1.7,0,3.2,2.2,3.2,4.8"/>
			<path class="st22" d="M38.9,32.9c-0.3,0-0.5-0.2-0.5-0.5c0-2.4-1.2-4.3-2.7-4.3c-1.4,0-2.7,2-2.7,4.3c0,0.3-0.2,0.5-0.5,0.5
				s-0.5-0.2-0.5-0.5c0-3,1.6-5.3,3.7-5.3c2.1,0,3.7,2.3,3.7,5.3C39.4,32.7,39.2,32.9,38.9,32.9z"/>
		</g>
		<g>
			<path class="st22" d="M38.9,32.9h-6.3c-0.3,0-0.5-0.2-0.5-0.5s0.2-0.5,0.5-0.5h6.3c0.3,0,0.5,0.2,0.5,0.5S39.2,32.9,38.9,32.9z"
				/>
		</g>
	</g>
	<g>
		<circle class="st41" cx="18" cy="21.1" r="2.3"/>
		<g>
			<path class="st41" d="M14.9,32.5c0-5,0.8-9.1,3.2-9.1c2.3,0,3.2,4.1,3.2,9.1"/>
			<path class="st41" d="M21.2,33c-0.3,0-0.5-0.2-0.5-0.5c0-5.3-1-8.6-2.7-8.6c-1.7,0-2.7,3.1-2.7,8.6c0,0.3-0.2,0.5-0.5,0.5
				s-0.5-0.2-0.5-0.5c0-6.4,1.2-9.6,3.7-9.6c2.4,0,3.7,3.4,3.7,9.6C21.7,32.8,21.5,33,21.2,33z"/>
		</g>
		<g>
			<path class="st41" d="M21.2,33h-6.3c-0.3,0-0.5-0.2-0.5-0.5s0.2-0.5,0.5-0.5h6.3c0.3,0,0.5,0.2,0.5,0.5S21.5,33,21.2,33z"/>
		</g>
	</g>
	<g>
		<circle class="st36" cx="9.2" cy="24.3" r="2.3"/>
		<g>
			<path class="st36" d="M6,32.7c0-2.7,0.9-6.1,3.2-6.1c2.3,0,3.2,3.5,3.2,6.1"/>
			<path class="st36" d="M12.3,33.2c-0.3,0-0.5-0.2-0.5-0.5c0-2.7-0.9-5.6-2.7-5.6c-1.7,0-2.7,2.9-2.7,5.6c0,0.3-0.2,0.5-0.5,0.5
				S5.5,33,5.5,32.7c0-3.2,1.1-6.6,3.7-6.6c2.5,0,3.7,3.4,3.7,6.6C12.8,33,12.6,33.2,12.3,33.2z"/>
		</g>
		<g>
			<path class="st36" d="M12.3,33.2H6c-0.3,0-0.5-0.2-0.5-0.5s0.2-0.5,0.5-0.5h6.3c0.3,0,0.5,0.2,0.5,0.5S12.6,33.2,12.3,33.2z"/>
		</g>
	</g>
	<g>
		<circle class="st44" cx="27" cy="22.1" r="2.3"/>
		<g>
			<path class="st44" d="M23.9,32.5c0-5,0.8-8.2,3.2-8.2c2.3,0,3.2,3.2,3.2,8.2"/>
			<path class="st44" d="M30.2,33c-0.3,0-0.5-0.2-0.5-0.5c0-3.5-0.5-7.7-2.7-7.7c-1.8,0-2.7,2.4-2.7,7.7c0,0.3-0.2,0.5-0.5,0.5
				s-0.5-0.2-0.5-0.5c0-4,0.4-8.7,3.7-8.7c2.5,0,3.7,2.8,3.7,8.7C30.7,32.8,30.5,33,30.2,33z"/>
		</g>
		<g>
			<path class="st44" d="M30.2,33h-6.3c-0.3,0-0.5-0.2-0.5-0.5s0.2-0.5,0.5-0.5h6.3c0.3,0,0.5,0.2,0.5,0.5S30.5,33,30.2,33z"/>
		</g>
	</g>
</g>
<g id="Hitch_Hike">
</g>
<g id="Trashhand">
</g>
<g id="Amatic_sc">
</g>
<g id="Rock_salt">
</g>
<g id="Blackberries">
</g>
<g id="Leafy">
</g>
<g id="Sunn">
</g>
<g id="LOGOS">
	<g id="Layer_9">
	</g>
	<g id="Logo_1">
	</g>
</g>
</svg>
