<?xml version="1.0" encoding="utf-8"?>
<!-- Generator: Adobe Illustrator 23.1.0, SVG Export Plug-In . SVG Version: 6.00 Build 0)  -->
<svg version="1.1" xmlns="http://www.w3.org/2000/svg" xmlns:xlink="http://www.w3.org/1999/xlink" x="0px" y="0px"
	 viewBox="0 0 48.2 63" style="enable-background:new 0 0 48.2 63;" xml:space="preserve">
<style type="text/css">
	.st0{fill:#006837;stroke:#077039;stroke-width:2;stroke-linecap:round;stroke-linejoin:round;stroke-miterlimit:10;}
	.st1{fill:none;stroke:#077039;stroke-width:2;stroke-linecap:round;stroke-linejoin:round;stroke-miterlimit:10;}
	.st2{fill:#006837;stroke:#006837;stroke-width:2;stroke-linecap:round;stroke-linejoin:round;stroke-miterlimit:10;}
	.st3{fill:none;stroke:#006837;stroke-width:2;stroke-linecap:round;stroke-linejoin:round;stroke-miterlimit:10;}
	.st4{fill:none;stroke:#006837;stroke-width:0.25;stroke-miterlimit:10;}
	.st5{fill:none;stroke:#F22F2F;stroke-width:0.25;stroke-linecap:round;stroke-linejoin:round;stroke-miterlimit:10;}
	.st6{fill:#EFDC30;}
	.st7{fill:none;stroke:#EFDC30;stroke-width:2;stroke-linecap:round;stroke-linejoin:round;stroke-miterlimit:10;}
	.st8{fill:none;stroke:#2664A8;stroke-linecap:round;stroke-linejoin:round;stroke-miterlimit:10;}
	.st9{fill:none;stroke:#10487A;stroke-linecap:round;stroke-linejoin:round;stroke-miterlimit:10;}
	.st10{clip-path:url(#SVGID_2_);}
	.st11{fill:#457C54;stroke:#457C54;stroke-linecap:round;stroke-linejoin:round;stroke-miterlimit:10;}
	.st12{fill:#457C54;stroke:#457C54;stroke-width:0.25;stroke-linecap:round;stroke-linejoin:round;stroke-miterlimit:10;}
	.st13{fill:none;stroke:#EFDC30;stroke-linecap:round;stroke-linejoin:round;stroke-miterlimit:10;}
	.st14{fill:none;stroke:#609FD8;stroke-linecap:round;stroke-linejoin:round;stroke-miterlimit:10;}
	.st15{clip-path:url(#SVGID_2_);fill:#609FD8;}
	.st16{clip-path:url(#SVGID_2_);fill:#0E5BA0;}
	.st17{fill:none;stroke:#0E5BA0;stroke-linecap:round;stroke-linejoin:round;stroke-miterlimit:10;}
	.st18{fill:none;stroke:#182B87;stroke-width:2;stroke-linecap:round;stroke-linejoin:round;stroke-miterlimit:10;}
	.st19{clip-path:url(#SVGID_4_);}
	.st20{fill:#5D8C50;stroke:#5D8C50;stroke-linecap:round;stroke-linejoin:round;stroke-miterlimit:10;}
	.st21{fill:#5D8C50;stroke:#5D8C50;stroke-width:0.25;stroke-linecap:round;stroke-linejoin:round;stroke-miterlimit:10;}
	.st22{fill:#FFF18F;}
	.st23{fill:none;stroke:#FFF18F;stroke-linecap:round;stroke-linejoin:round;stroke-miterlimit:10;}
	.st24{fill:none;stroke:#51AFBF;stroke-linecap:round;stroke-linejoin:round;stroke-miterlimit:10;}
	.st25{clip-path:url(#SVGID_4_);fill:#51AFBF;}
	.st26{clip-path:url(#SVGID_4_);fill:#1A7F89;}
	.st27{display:none;clip-path:url(#SVGID_4_);}
	.st28{display:inline;fill:none;stroke:#2664A8;stroke-linecap:round;stroke-linejoin:round;stroke-miterlimit:10;}
	.st29{fill:none;stroke:#1A7F89;stroke-linecap:round;stroke-linejoin:round;stroke-miterlimit:10;}
	.st30{clip-path:url(#SVGID_6_);}
	.st31{clip-path:url(#SVGID_6_);fill:#51AFBF;}
	.st32{clip-path:url(#SVGID_6_);fill:#1A7F89;}
	.st33{display:none;clip-path:url(#SVGID_6_);}
	.st34{fill:#FFF18F;stroke:#FFF18F;stroke-linecap:round;stroke-linejoin:round;stroke-miterlimit:10;}
	.st35{fill:#51AFBF;stroke:#51AFBF;stroke-linecap:round;stroke-linejoin:round;stroke-miterlimit:10;}
	.st36{fill:#5D8C50;}
	.st37{fill:none;stroke:#1A7F89;stroke-width:0.5;stroke-linejoin:round;stroke-miterlimit:10;}
	.st38{fill:none;stroke:#1A7F89;stroke-width:0.5;stroke-miterlimit:10;}
	.st39{fill:#51AFBF;stroke:#1A7F89;stroke-width:0.5;stroke-miterlimit:10;}
	.st40{fill:#1A7F89;stroke:#1A7F89;stroke-width:0.5;stroke-linecap:round;stroke-linejoin:round;stroke-miterlimit:10;}
	.st41{fill:#51AFBF;}
	.st42{fill:#FFF18F;stroke:#FFF18F;stroke-miterlimit:10;}
	.st43{fill:none;stroke:#5D8C50;stroke-linecap:round;stroke-linejoin:round;stroke-miterlimit:10;}
	.st44{fill:#1A7F89;}
	.st45{fill:#1A7F89;stroke:#1A7F89;stroke-linecap:round;stroke-linejoin:round;stroke-miterlimit:10;}
	.st46{clip-path:url(#SVGID_8_);}
	.st47{clip-path:url(#SVGID_10_);}
	.st48{clip-path:url(#SVGID_12_);}
	.st49{clip-path:url(#SVGID_14_);}
	.st50{clip-path:url(#SVGID_16_);}
	.st51{clip-path:url(#SVGID_18_);}
	.st52{clip-path:url(#SVGID_20_);}
	.st53{clip-path:url(#SVGID_22_);}
	.st54{clip-path:url(#SVGID_24_);}
	.st55{clip-path:url(#SVGID_26_);}
	.st56{clip-path:url(#SVGID_28_);}
	.st57{clip-path:url(#SVGID_30_);}
	.st58{clip-path:url(#SVGID_32_);}
	.st59{clip-path:url(#SVGID_34_);}
	.st60{clip-path:url(#SVGID_36_);}
	.st61{fill:#009245;}
	.st62{fill:#29ABE2;}
	.st63{fill:#006837;}
	.st64{fill:#FFFA00;}
	.st65{fill:#0071BC;}
</style>
<g id="LINE_LOGOS">
	<g id="Layer_12">
	</g>
	<g>
		<path class="st44" d="M23.3,54C11.6,54,2,44.5,2,32.7C2,21,11.6,11.4,23.3,11.4c11.8,0,21.3,9.6,21.3,21.3
			C44.6,44.5,35.1,54,23.3,54z M23.3,12.4C12.1,12.4,3,21.5,3,32.7S12.1,53,23.3,53s20.3-9.1,20.3-20.3S34.5,12.4,23.3,12.4z"/>
	</g>
	<g>
		<g>
			<circle class="st41" cx="23.3" cy="30.9" r="3.8"/>
			<g>
				<path class="st41" d="M18,42.8c0-4.5,2.4-8.1,5.3-8.1s5.3,3.6,5.3,8.1"/>
				<path class="st41" d="M28.6,43.3c-0.3,0-0.5-0.2-0.5-0.5c0-4.2-2.2-7.6-4.8-7.6s-4.8,3.4-4.8,7.6c0,0.3-0.2,0.5-0.5,0.5
					s-0.5-0.2-0.5-0.5c0-4.8,2.6-8.6,5.8-8.6c3.2,0,5.8,3.9,5.8,8.6C29.1,43,28.9,43.3,28.6,43.3z"/>
			</g>
			<g>
				<path class="st41" d="M28.6,43.3H18c-0.3,0-0.5-0.2-0.5-0.5s0.2-0.5,0.5-0.5h10.6c0.3,0,0.5,0.2,0.5,0.5S28.9,43.3,28.6,43.3z"
					/>
			</g>
		</g>
		<g>
			<g>
				<circle class="st22" cx="12.3" cy="26.3" r="3.9"/>
				<path class="st22" d="M12.3,30.7c-2.4,0-4.4-2-4.4-4.4s2-4.4,4.4-4.4c2.4,0,4.4,2,4.4,4.4S14.8,30.7,12.3,30.7z M12.3,22.9
					c-1.9,0-3.4,1.5-3.4,3.4c0,1.9,1.5,3.4,3.4,3.4c1.9,0,3.4-1.5,3.4-3.4C15.8,24.4,14.2,22.9,12.3,22.9z"/>
			</g>
			<g>
				<path class="st36" d="M14,24.8c-0.2-0.2-0.5-0.3-0.8-0.3c-0.2,0-0.4,0.1-0.6,0.2c-0.1,0.1-0.2,0.2-0.3,0.3
					c-0.1-0.1-0.2-0.2-0.3-0.3c-0.2-0.1-0.4-0.2-0.6-0.2c-0.3,0-0.6,0.1-0.8,0.3c-0.2,0.2-0.3,0.5-0.3,0.9c0,0.3,0.1,0.7,0.4,1
					c0.2,0.3,0.6,0.6,1,0.9c0.1,0.1,0.3,0.3,0.5,0.4c0,0,0.1,0.1,0.2,0.1c0.1,0,0.1,0,0.2-0.1c0.2-0.1,0.3-0.3,0.5-0.4
					c0.4-0.3,0.8-0.6,1-0.9c0.3-0.3,0.4-0.6,0.4-1C14.3,25.4,14.2,25.1,14,24.8z"/>
				<path class="st36" d="M12.3,28.2c-0.1,0-0.2,0-0.2-0.1c-0.2-0.1-0.3-0.3-0.5-0.4c-0.4-0.3-0.8-0.6-1-1c-0.3-0.4-0.4-0.7-0.4-1.1
					c0-0.4,0.1-0.7,0.4-0.9c0.4-0.4,1.1-0.5,1.6-0.1c0.1,0,0.1,0.1,0.2,0.2c0.1-0.1,0.1-0.1,0.2-0.2c0.5-0.4,1.2-0.3,1.6,0.1l0,0
					c0.2,0.2,0.4,0.6,0.4,0.9c0,0.4-0.1,0.7-0.4,1.1c-0.3,0.3-0.6,0.6-1,1c-0.1,0.1-0.3,0.3-0.5,0.4C12.5,28.2,12.4,28.2,12.3,28.2z
					 M11.5,24.6c-0.3,0-0.5,0.1-0.7,0.3c-0.2,0.2-0.3,0.5-0.3,0.8c0,0.3,0.1,0.6,0.4,0.9c0.2,0.3,0.6,0.6,1,0.9
					c0.1,0.1,0.3,0.3,0.5,0.4c0,0,0.1,0,0.1,0c0.2-0.1,0.3-0.3,0.5-0.4c0.4-0.3,0.7-0.6,1-0.9c0.3-0.3,0.4-0.6,0.4-0.9
					c0-0.3-0.1-0.6-0.3-0.8v0c-0.3-0.3-0.9-0.4-1.3-0.1c-0.1,0.1-0.2,0.1-0.2,0.2c0,0.1-0.2,0.1-0.2,0c-0.1-0.1-0.1-0.2-0.2-0.2
					C11.8,24.7,11.7,24.6,11.5,24.6z"/>
			</g>
		</g>
		<g>
			<g>
				<circle class="st22" cx="34.3" cy="26.3" r="3.9"/>
				<path class="st22" d="M34.3,30.7c-2.4,0-4.4-2-4.4-4.4s2-4.4,4.4-4.4s4.4,2,4.4,4.4S36.7,30.7,34.3,30.7z M34.3,22.9
					c-1.9,0-3.4,1.5-3.4,3.4c0,1.9,1.5,3.4,3.4,3.4s3.4-1.5,3.4-3.4C37.7,24.4,36.2,22.9,34.3,22.9z"/>
			</g>
			<g>
				<path class="st36" d="M35.5,28c-0.1,0-0.3,0-0.4-0.1l-2.5-2.5c-0.2-0.2-0.2-0.5,0-0.7s0.5-0.2,0.7,0l2.5,2.5
					c0.2,0.2,0.2,0.5,0,0.7C35.8,28,35.7,28,35.5,28z"/>
				<path class="st36" d="M33,28c-0.1,0-0.3,0-0.4-0.1c-0.2-0.2-0.2-0.5,0-0.7l2.5-2.5c0.2-0.2,0.5-0.2,0.7,0s0.2,0.5,0,0.7
					l-2.5,2.5C33.3,28,33.1,28,33,28z"/>
			</g>
		</g>
	</g>
</g>
<g id="Hitch_Hike">
</g>
<g id="Trashhand">
</g>
<g id="Amatic_sc">
</g>
<g id="Rock_salt">
</g>
<g id="Blackberries">
</g>
<g id="Leafy">
</g>
<g id="Sunn">
</g>
<g id="LOGOS">
	<g id="Layer_9">
	</g>
	<g id="Logo_1">
	</g>
</g>
</svg>
