<?xml version="1.0" encoding="utf-8"?>
<!-- Generator: Adobe Illustrator 23.1.0, SVG Export Plug-In . SVG Version: 6.00 Build 0)  -->
<svg version="1.1" xmlns="http://www.w3.org/2000/svg" xmlns:xlink="http://www.w3.org/1999/xlink" x="0px" y="0px"
	 viewBox="0 0 48.6 60.5" style="enable-background:new 0 0 48.6 60.5;" xml:space="preserve">
<style type="text/css">
	.st0{fill:#006837;stroke:#077039;stroke-width:2;stroke-linecap:round;stroke-linejoin:round;stroke-miterlimit:10;}
	.st1{fill:none;stroke:#077039;stroke-width:2;stroke-linecap:round;stroke-linejoin:round;stroke-miterlimit:10;}
	.st2{fill:#006837;stroke:#006837;stroke-width:2;stroke-linecap:round;stroke-linejoin:round;stroke-miterlimit:10;}
	.st3{fill:none;stroke:#006837;stroke-width:2;stroke-linecap:round;stroke-linejoin:round;stroke-miterlimit:10;}
	.st4{fill:none;stroke:#006837;stroke-width:0.25;stroke-miterlimit:10;}
	.st5{fill:none;stroke:#F22F2F;stroke-width:0.25;stroke-linecap:round;stroke-linejoin:round;stroke-miterlimit:10;}
	.st6{fill:#EFDC30;}
	.st7{fill:none;stroke:#EFDC30;stroke-width:2;stroke-linecap:round;stroke-linejoin:round;stroke-miterlimit:10;}
	.st8{fill:none;stroke:#2664A8;stroke-linecap:round;stroke-linejoin:round;stroke-miterlimit:10;}
	.st9{fill:none;stroke:#10487A;stroke-linecap:round;stroke-linejoin:round;stroke-miterlimit:10;}
	.st10{clip-path:url(#SVGID_2_);}
	.st11{fill:#457C54;stroke:#457C54;stroke-linecap:round;stroke-linejoin:round;stroke-miterlimit:10;}
	.st12{fill:#457C54;stroke:#457C54;stroke-width:0.25;stroke-linecap:round;stroke-linejoin:round;stroke-miterlimit:10;}
	.st13{fill:none;stroke:#EFDC30;stroke-linecap:round;stroke-linejoin:round;stroke-miterlimit:10;}
	.st14{fill:none;stroke:#609FD8;stroke-linecap:round;stroke-linejoin:round;stroke-miterlimit:10;}
	.st15{clip-path:url(#SVGID_2_);fill:#609FD8;}
	.st16{clip-path:url(#SVGID_2_);fill:#0E5BA0;}
	.st17{fill:none;stroke:#0E5BA0;stroke-linecap:round;stroke-linejoin:round;stroke-miterlimit:10;}
	.st18{fill:none;stroke:#182B87;stroke-width:2;stroke-linecap:round;stroke-linejoin:round;stroke-miterlimit:10;}
	.st19{clip-path:url(#SVGID_4_);}
	.st20{fill:#5D8C50;stroke:#5D8C50;stroke-linecap:round;stroke-linejoin:round;stroke-miterlimit:10;}
	.st21{fill:#5D8C50;stroke:#5D8C50;stroke-width:0.25;stroke-linecap:round;stroke-linejoin:round;stroke-miterlimit:10;}
	.st22{fill:#FFF18F;}
	.st23{fill:none;stroke:#FFF18F;stroke-linecap:round;stroke-linejoin:round;stroke-miterlimit:10;}
	.st24{fill:none;stroke:#51AFBF;stroke-linecap:round;stroke-linejoin:round;stroke-miterlimit:10;}
	.st25{clip-path:url(#SVGID_4_);fill:#51AFBF;}
	.st26{clip-path:url(#SVGID_4_);fill:#1A7F89;}
	.st27{display:none;clip-path:url(#SVGID_4_);}
	.st28{display:inline;fill:none;stroke:#2664A8;stroke-linecap:round;stroke-linejoin:round;stroke-miterlimit:10;}
	.st29{fill:none;stroke:#1A7F89;stroke-linecap:round;stroke-linejoin:round;stroke-miterlimit:10;}
	.st30{clip-path:url(#SVGID_6_);}
	.st31{clip-path:url(#SVGID_6_);fill:#51AFBF;}
	.st32{clip-path:url(#SVGID_6_);fill:#1A7F89;}
	.st33{display:none;clip-path:url(#SVGID_6_);}
	.st34{fill:#FFF18F;stroke:#FFF18F;stroke-linecap:round;stroke-linejoin:round;stroke-miterlimit:10;}
	.st35{fill:#51AFBF;stroke:#51AFBF;stroke-linecap:round;stroke-linejoin:round;stroke-miterlimit:10;}
	.st36{fill:#5D8C50;}
	.st37{fill:none;stroke:#1A7F89;stroke-width:0.5;stroke-linejoin:round;stroke-miterlimit:10;}
	.st38{fill:none;stroke:#1A7F89;stroke-width:0.5;stroke-miterlimit:10;}
	.st39{fill:#51AFBF;stroke:#1A7F89;stroke-width:0.5;stroke-miterlimit:10;}
	.st40{fill:#1A7F89;stroke:#1A7F89;stroke-width:0.5;stroke-linecap:round;stroke-linejoin:round;stroke-miterlimit:10;}
	.st41{fill:#51AFBF;}
	.st42{fill:#FFF18F;stroke:#FFF18F;stroke-miterlimit:10;}
	.st43{fill:none;stroke:#5D8C50;stroke-linecap:round;stroke-linejoin:round;stroke-miterlimit:10;}
	.st44{fill:#1A7F89;}
	.st45{fill:#1A7F89;stroke:#1A7F89;stroke-linecap:round;stroke-linejoin:round;stroke-miterlimit:10;}
	.st46{clip-path:url(#SVGID_8_);}
	.st47{clip-path:url(#SVGID_10_);}
	.st48{clip-path:url(#SVGID_12_);}
	.st49{clip-path:url(#SVGID_14_);}
	.st50{clip-path:url(#SVGID_16_);}
	.st51{clip-path:url(#SVGID_18_);}
	.st52{clip-path:url(#SVGID_20_);}
	.st53{clip-path:url(#SVGID_22_);}
	.st54{clip-path:url(#SVGID_24_);}
	.st55{clip-path:url(#SVGID_26_);}
	.st56{clip-path:url(#SVGID_28_);}
	.st57{clip-path:url(#SVGID_30_);}
	.st58{clip-path:url(#SVGID_32_);}
	.st59{clip-path:url(#SVGID_34_);}
	.st60{clip-path:url(#SVGID_36_);}
	.st61{fill:#009245;}
	.st62{fill:#29ABE2;}
	.st63{fill:#006837;}
	.st64{fill:#FFFA00;}
	.st65{fill:#0071BC;}
</style>
<g id="LINE_LOGOS">
	<g id="Layer_12">
	</g>
	<g>
		<g>
			<rect x="11.7" y="25.1" class="st22" width="24.5" height="15.1"/>
			<path class="st22" d="M36.3,40.7H11.7c-0.3,0-0.5-0.2-0.5-0.5V25.1c0-0.3,0.2-0.5,0.5-0.5h24.5c0.3,0,0.5,0.2,0.5,0.5v15.1
				C36.8,40.5,36.6,40.7,36.3,40.7z M12.2,39.7h23.5V25.6H12.2V39.7z"/>
		</g>
		<path class="st44" d="M23.8,51.6C12.1,51.6,2.5,42,2.5,30.3S12.1,8.9,23.8,8.9c11.8,0,21.3,9.6,21.3,21.3S35.6,51.6,23.8,51.6z
			 M23.8,9.9C12.6,9.9,3.5,19,3.5,30.3s9.1,20.3,20.3,20.3s20.3-9.1,20.3-20.3S35,9.9,23.8,9.9z"/>
		<g>
			<rect x="11.7" y="19.9" class="st41" width="24.5" height="5.2"/>
			<path class="st41" d="M36.3,25.6H11.7c-0.3,0-0.5-0.2-0.5-0.5v-5.2c0-0.3,0.2-0.5,0.5-0.5h24.5c0.3,0,0.5,0.2,0.5,0.5v5.2
				C36.8,25.4,36.6,25.6,36.3,25.6z M12.2,24.6h23.5v-4.2H12.2V24.6z"/>
		</g>
		<rect x="29.5" y="28.9" class="st36" width="7.3" height="3.6"/>
		<rect x="11.3" y="32.6" class="st36" width="4" height="3.6"/>
		<rect x="15.1" y="32.6" class="st36" width="3.6" height="3.6"/>
		<rect x="11.3" y="28.6" class="st44" width="25.5" height="0.5"/>
		<rect x="11.3" y="32.4" class="st44" width="25.5" height="0.5"/>
		<rect x="11.3" y="36.2" class="st44" width="25.5" height="0.5"/>
	</g>
	<g>
		<rect x="14.4" y="25.6" class="st44" width="0.5" height="15.2"/>
	</g>
	<g>
		<rect x="18.1" y="25.6" class="st44" width="0.5" height="15.1"/>
	</g>
	<g>
		<rect x="21.8" y="25.6" class="st44" width="0.5" height="15.1"/>
	</g>
	<g>
		<rect x="25.5" y="25.6" class="st44" width="0.5" height="15.1"/>
	</g>
	<g>
		<rect x="29.2" y="25.6" class="st44" width="0.5" height="15.1"/>
	</g>
	<g>
		<rect x="32.9" y="25.6" class="st44" width="0.5" height="15.1"/>
	</g>
	<g>
		<path class="st44" d="M14.2,21.8c0,0-0.7,0.6-0.7,0.6c0,0,0.8,0.8,0.8,0.8L14.2,21.8z"/>
		<path class="st44" d="M14.2,23.4c-0.1,0-0.1,0-0.2-0.1c-0.9-0.8-0.9-0.8-0.8-1c0-0.1,0.1-0.1,0.1-0.2c0.1-0.1,0.4-0.3,0.7-0.6
			c0.1-0.1,0.2-0.1,0.3,0c0.1,0,0.1,0.1,0.1,0.2l0,1.4c0,0.1-0.1,0.2-0.1,0.2C14.3,23.4,14.2,23.4,14.2,23.4z M13.8,22.5
			c0,0,0.1,0.1,0.1,0.1l0-0.2C13.9,22.4,13.8,22.4,13.8,22.5z"/>
	</g>
	<g>
		<path class="st44" d="M33.8,21.8c0,0,0.7,0.6,0.7,0.6c0,0-0.8,0.8-0.8,0.8L33.8,21.8z"/>
		<path class="st44" d="M33.8,23.4c0,0-0.1,0-0.1,0c-0.1,0-0.2-0.1-0.1-0.2l0-1.4c0-0.1,0.1-0.2,0.1-0.2c0.1,0,0.2,0,0.3,0
			c0.3,0.3,0.6,0.5,0.7,0.6c0.1,0,0.1,0.1,0.1,0.2c0,0.2,0.1,0.2-0.8,1C33.9,23.4,33.9,23.4,33.8,23.4z M34.1,22.4l0,0.2
			c0,0,0.1-0.1,0.1-0.1C34.2,22.4,34.1,22.4,34.1,22.4z"/>
	</g>
	<g>
		<path class="st44" d="M27.1,22.8h-6.3c-0.1,0-0.3-0.1-0.3-0.3s0.1-0.3,0.3-0.3h6.3c0.1,0,0.3,0.1,0.3,0.3S27.3,22.8,27.1,22.8z"/>
	</g>
</g>
<g id="Hitch_Hike">
</g>
<g id="Trashhand">
</g>
<g id="Amatic_sc">
</g>
<g id="Rock_salt">
</g>
<g id="Blackberries">
</g>
<g id="Leafy">
</g>
<g id="Sunn">
</g>
<g id="LOGOS">
	<g id="Layer_9">
	</g>
	<g id="Logo_1">
	</g>
</g>
</svg>
